<svg width="150" height="39" viewBox="0 0 150 39" fill="none" xmlns="http://www.w3.org/2000/svg">
<path d="M44.6008 12.0449H48.2299V26.5539H44.6008V12.0449ZM49.6694 21.0756C49.6694 17.4873 51.8952 15.3462 55.3307 15.3462C58.7662 15.3462 60.992 17.4873 60.992 21.0756C60.992 24.664 58.8145 26.817 55.3307 26.817C51.8468 26.817 49.6694 24.7238 49.6694 21.0756ZM57.3508 21.0756C57.3508 19.102 56.5645 17.9418 55.3307 17.9418C54.0968 17.9418 53.3226 19.1379 53.3226 21.0756C53.3226 23.0133 54.0847 24.1855 55.3307 24.1855C56.5766 24.1855 57.3508 23.0851 57.3508 21.0876V21.0756ZM62.3589 27.2596H65.8428C66.0086 27.6238 66.2889 27.9253 66.642 28.1193C66.9951 28.3132 67.4022 28.3893 67.8024 28.3361C69.1815 28.3361 69.9073 27.5945 69.9073 26.518V24.5085H69.8347C69.5456 25.1244 69.0764 25.6404 68.4877 25.9901C67.8991 26.3397 67.2179 26.507 66.5323 26.4701C63.8831 26.4701 62.1291 24.4726 62.1291 21.0397C62.1291 17.6069 63.7984 15.4419 66.5807 15.4419C67.2878 15.4145 67.9866 15.6015 68.5833 15.9776C69.18 16.3539 69.6462 16.9015 69.9194 17.5471V15.5495H73.5484V26.4342C73.5484 29.0537 71.2137 30.6805 67.7662 30.6805C64.5605 30.6805 62.5645 29.2571 62.3589 27.2715V27.2596ZM69.9194 21.0637C69.9194 19.3173 69.1089 18.2169 67.8266 18.2169C66.5444 18.2169 65.7581 19.3054 65.7581 21.0637C65.7581 22.822 66.5323 23.8147 67.8266 23.8147C69.121 23.8147 69.9194 22.8459 69.9194 21.0756V21.0637ZM74.9153 21.0637C74.9153 17.4753 77.1412 15.3342 80.5766 15.3342C84.0121 15.3342 86.25 17.4753 86.25 21.0637C86.25 24.652 84.0726 26.805 80.5766 26.805C77.0807 26.805 74.9153 24.7238 74.9153 21.0756V21.0637ZM82.5968 21.0637C82.5968 19.0901 81.8105 17.9298 80.5766 17.9298C79.3428 17.9298 78.6291 19.1379 78.6291 21.0876C78.6291 23.0373 79.3912 24.1975 80.625 24.1975C81.8589 24.1975 82.5968 23.0851 82.5968 21.0876V21.0637ZM87.6291 12.942C87.6195 12.5797 87.7191 12.2228 87.9149 11.9165C88.1109 11.6101 88.3943 11.3682 88.7294 11.2214C89.0645 11.0746 89.4361 11.0294 89.7972 11.0917C90.1583 11.1539 90.4925 11.3208 90.7575 11.5711C91.0227 11.8214 91.2066 12.1439 91.286 12.4978C91.3655 12.8516 91.337 13.2207 91.2039 13.5585C91.071 13.8961 90.8395 14.1873 90.5391 14.3948C90.2387 14.6023 89.8826 14.717 89.5162 14.7242C89.2733 14.7407 89.0295 14.7074 88.8003 14.6263C88.5709 14.5452 88.3612 14.4181 88.1839 14.2529C88.0067 14.0879 87.8659 13.8882 87.7705 13.6667C87.6749 13.4453 87.6268 13.2067 87.6291 12.9659V12.942ZM87.6291 15.5735H91.2581V26.5539H87.6291V15.5735ZM104.431 21.0637C104.431 24.652 102.823 26.6974 100.065 26.6974C99.3574 26.7422 98.6532 26.5713 98.0474 26.2077C97.4416 25.844 96.9634 25.3051 96.6774 24.664H96.6049V30.0704H92.9758V15.5495H96.6049V17.5112H96.6774C96.9501 16.8594 97.4192 16.3066 98.0209 15.9278C98.6226 15.5489 99.3277 15.3626 100.04 15.394C102.823 15.4419 104.48 17.4992 104.48 21.0876L104.431 21.0637ZM100.802 21.0637C100.802 19.3173 99.992 18.2049 98.7218 18.2049C97.4516 18.2049 96.6412 19.3293 96.6291 21.0637C96.617 22.798 97.4516 23.9104 98.7218 23.9104C99.992 23.9104 100.802 22.822 100.802 21.0876V21.0637ZM110.661 15.3223C113.673 15.3223 115.5 16.7337 115.585 18.9944H112.282C112.282 18.2169 111.629 17.7265 110.625 17.7265C109.621 17.7265 109.173 18.1092 109.173 18.6714C109.173 19.2336 109.573 19.413 110.383 19.5805L112.706 20.047C114.919 20.5134 115.863 21.3986 115.863 23.0612C115.863 25.3338 113.77 26.7931 110.686 26.7931C107.601 26.7931 105.581 25.3338 105.423 23.0971H108.919C109.028 23.9104 109.681 24.3889 110.746 24.3889C111.811 24.3889 112.294 24.042 112.294 23.4679C112.294 22.8937 111.956 22.7741 111.085 22.5947L108.992 22.1521C106.827 21.7096 105.69 20.5732 105.69 18.8987C105.714 16.7457 107.661 15.3462 110.661 15.3462V15.3223ZM127.972 26.5299H124.476V24.4846H124.403C124.211 25.1713 123.788 25.7723 123.202 26.188C122.617 26.6035 121.905 26.8086 121.186 26.7692C120.634 26.8001 120.083 26.7138 119.568 26.5158C119.053 26.3179 118.587 26.0131 118.202 25.6218C117.817 25.2307 117.521 24.7622 117.334 24.2482C117.148 23.7342 117.075 23.1867 117.121 22.6425V15.5495H120.75V21.8172C120.75 23.121 121.427 23.8147 122.552 23.8147C122.816 23.8152 123.077 23.7601 123.318 23.6528C123.558 23.5455 123.773 23.3886 123.947 23.1926C124.12 22.9966 124.251 22.7661 124.327 22.5166C124.403 22.267 124.426 22.004 124.391 21.7454V15.5495H128.02L127.972 26.5299ZM129.726 15.5495H133.234V17.6667H133.306C133.499 16.9891 133.914 16.3936 134.485 15.9738C135.056 15.554 135.752 15.3332 136.464 15.3462C137.188 15.2889 137.907 15.5031 138.479 15.9464C139.05 16.3897 139.432 17.0294 139.548 17.7384H139.621C139.84 17.0218 140.295 16.398 140.913 15.9648C141.53 15.5317 142.276 15.314 143.032 15.3462C143.526 15.3298 144.017 15.4163 144.474 15.6C144.933 15.7836 145.345 16.0605 145.688 16.4124C146.03 16.7644 146.294 17.1837 146.462 17.6429C146.629 18.1021 146.698 18.5912 146.661 19.0781V26.5539H143.032V20.035C143.032 18.8389 142.488 18.2887 141.472 18.2887C141.246 18.2867 141.021 18.3329 140.814 18.4241C140.607 18.5152 140.422 18.6492 140.272 18.817C140.122 18.9848 140.009 19.1824 139.943 19.3966C139.876 19.611 139.858 19.8368 139.887 20.0589V26.5539H136.44V19.9871C136.44 18.8867 135.895 18.2887 134.903 18.2887C134.675 18.2888 134.447 18.3369 134.239 18.4298C134.03 18.5229 133.842 18.6586 133.691 18.8281C133.539 18.9976 133.425 19.1971 133.356 19.4135C133.288 19.6297 133.267 19.8579 133.294 20.0828V26.5539H129.665L129.726 15.5495Z" fill="white"/>
<path d="M34.4516 12.7028C33.836 11.3109 33.0213 10.0138 32.0323 8.85128C30.5704 7.08143 28.746 5.63777 26.6791 4.61534C24.6122 3.59292 22.3498 3.0149 20.0408 2.91932C17.7317 2.82373 15.4284 3.21276 13.2823 4.06081C11.1363 4.90885 9.1962 6.19667 7.58979 7.83952C5.98336 9.48236 4.74701 11.443 3.96211 13.5923C3.17721 15.7417 2.86154 18.031 3.03591 20.3096C3.21028 22.5884 3.87071 24.8047 4.97374 26.8127C6.07677 28.8209 7.59739 30.5752 9.43552 31.9603C10.615 32.8669 11.9182 33.6038 13.3065 34.1492C15.2529 34.938 17.336 35.3442 19.4395 35.3454C23.7816 35.3359 27.9426 33.6245 31.0107 30.5864C34.0787 27.5482 35.8033 23.4313 35.8065 19.1379C35.8096 16.9233 35.3484 14.7321 34.4516 12.7028ZM19.4274 6.20785C21.3165 6.20765 23.1826 6.61589 24.8952 7.40397C24.4776 7.58239 24.0385 7.70702 23.5887 7.77478C22.1088 7.9866 20.7379 8.66597 19.6805 9.7115C18.6231 10.757 17.936 12.1126 17.7218 13.576C17.6278 14.3966 17.2503 15.1601 16.6531 15.7376C16.0558 16.3151 15.2755 16.671 14.4436 16.7457C12.9637 16.9575 11.5927 17.6369 10.5353 18.6824C9.47796 19.728 8.79087 21.0835 8.57665 22.5469C8.50412 23.3272 8.16741 24.0606 7.62101 24.6281C6.67825 22.6585 6.25474 20.4849 6.38988 18.3098C6.52503 16.1348 7.21444 14.0289 8.39396 12.1881C9.57346 10.3474 11.2048 8.83156 13.136 7.78176C15.0673 6.73196 17.2358 6.18231 19.4395 6.18392L19.4274 6.20785ZM9.42343 27.5108C9.56859 27.3792 9.71375 27.2596 9.85891 27.116C10.9351 26.0844 11.6259 24.7225 11.8186 23.2526C11.8967 22.4263 12.2698 21.6546 12.871 21.0756C13.4496 20.4802 14.2283 20.1143 15.0605 20.047C16.5404 19.8351 17.9114 19.1557 18.9687 18.1102C20.0261 17.0647 20.7132 15.7091 20.9274 14.2458C20.9798 13.3816 21.3548 12.5674 21.9799 11.9612C22.5727 11.3773 23.3588 11.0248 24.1936 10.9684C25.5531 10.7834 26.8211 10.1858 27.8226 9.25797C28.963 10.1934 29.929 11.3188 30.6774 12.5832C30.6315 12.6445 30.5787 12.7008 30.5202 12.7506C29.9428 13.3513 29.1651 13.7252 28.3307 13.8032C26.8492 14.0113 25.4762 14.6895 24.4181 15.7357C23.3601 16.7819 22.6742 18.1395 22.4637 19.6044C22.3785 20.4278 22.0079 21.1968 21.4149 21.781C20.8218 22.3653 20.0428 22.7288 19.2097 22.81C17.7254 23.0202 16.3494 23.6983 15.2859 24.7433C14.2224 25.7885 13.5282 27.1449 13.3065 28.6112C13.2414 29.1957 13.0383 29.7571 12.7137 30.2499C11.4726 29.5212 10.361 28.5959 9.42343 27.5108ZM19.4274 32.1278C18.2 32.1291 16.9783 31.96 15.7984 31.6254C16.2021 30.8814 16.4645 30.0706 16.5726 29.2332C16.6574 28.4116 17.0262 27.644 17.6168 27.0601C18.2074 26.4761 18.9836 26.1114 19.8145 26.0276C21.2966 25.8181 22.6703 25.1398 23.7301 24.094C24.7898 23.0484 25.4787 21.6914 25.6936 20.2264C25.7784 19.4048 26.1472 18.6372 26.7378 18.0533C27.3283 17.4693 28.1046 17.1046 28.9355 17.0208C30.0508 16.8774 31.1139 16.4667 32.0323 15.8247C32.5423 17.7359 32.6026 19.7373 32.2089 21.6753C31.8151 23.6132 30.9776 25.4363 29.7606 27.0046C28.5437 28.5727 26.9797 29.8445 25.1884 30.7222C23.3972 31.5999 21.4266 32.0603 19.4274 32.068V32.1278Z" fill="white"/>
</svg>
